<?xml version="1.0" encoding="UTF-8"?>
<svg xmlns="http://www.w3.org/2000/svg" xmlns:xlink="http://www.w3.org/1999/xlink" width="61.442pt" height="38.279pt" viewBox="0 0 61.442 38.279" version="1.1">
<defs>
<clipPath id="clip1">
  <path d="M 0 0 L 52 0 L 52 38.277344 L 0 38.277344 Z M 0 0 "/>
</clipPath>
<clipPath id="clip2">
  <path d="M 13 0 L 61.441406 0 L 61.441406 38.277344 L 13 38.277344 Z M 13 0 "/>
</clipPath>
</defs>
<g id="surface1">
<g clip-path="url(#clip1)" clip-rule="nonzero">
<path style="fill:none;stroke-width:0.70865;stroke-linecap:butt;stroke-linejoin:miter;stroke:rgb(0%,0%,0%);stroke-opacity:1;stroke-miterlimit:10;" d="M 8.864094 -0.000625 C 8.864094 10.374375 0.453938 18.784531 -9.921062 18.784531 C -20.296062 18.784531 -28.706219 10.374375 -28.706219 -0.000625 C -28.706219 -10.375625 -20.296062 -18.785781 -9.921062 -18.785781 C 0.453938 -18.785781 8.864094 -10.375625 8.864094 -0.000625 Z M 8.864094 -0.000625 " transform="matrix(1,0,0,-1,32.382,19.14)"/>
</g>
<g clip-path="url(#clip2)" clip-rule="nonzero">
<path style="fill:none;stroke-width:0.70865;stroke-linecap:butt;stroke-linejoin:miter;stroke:rgb(0%,0%,0%);stroke-opacity:1;stroke-miterlimit:10;" d="M 28.707844 -0.000625 C 28.707844 10.374375 20.297688 18.784531 9.922688 18.784531 C -0.452312 18.784531 -8.862469 10.374375 -8.862469 -0.000625 C -8.862469 -10.375625 -0.452312 -18.785781 9.922688 -18.785781 C 20.297688 -18.785781 28.707844 -10.375625 28.707844 -0.000625 Z M 28.707844 -0.000625 " transform="matrix(1,0,0,-1,32.382,19.14)"/>
</g>
</g>
</svg>
