<?xml version="1.0" encoding="UTF-8"?>
<svg xmlns="http://www.w3.org/2000/svg" xmlns:xlink="http://www.w3.org/1999/xlink" width="124.619pt" height="12.688pt" viewBox="0 0 124.619 12.688" version="1.1">
<defs>
<clipPath id="clip1">
  <path d="M 38 0 L 90 0 L 90 12.6875 L 38 12.6875 Z M 38 0 "/>
</clipPath>
<clipPath id="clip2">
  <path d="M 0 0 L 17 0 L 17 12.6875 L 0 12.6875 Z M 0 0 "/>
</clipPath>
<clipPath id="clip3">
  <path d="M 116 2 L 124.617188 2 L 124.617188 11 L 116 11 Z M 116 2 "/>
</clipPath>
<clipPath id="clip4">
  <path d="M 111 0 L 124.617188 0 L 124.617188 12.6875 L 111 12.6875 Z M 111 0 "/>
</clipPath>
</defs>
<g id="surface1">
<path style=" stroke:none;fill-rule:nonzero;fill:rgb(100%,100%,100%);fill-opacity:1;" d="M 69.605469 6.34375 C 69.605469 3.230469 67.082031 0.707031 63.96875 0.707031 C 60.859375 0.707031 58.335938 3.230469 58.335938 6.34375 C 58.335938 9.457031 60.859375 11.980469 63.96875 11.980469 C 67.082031 11.980469 69.605469 9.457031 69.605469 6.34375 Z M 69.605469 6.34375 "/>
<g clip-path="url(#clip1)" clip-rule="nonzero">
<path style="fill:none;stroke-width:1.41731;stroke-linecap:butt;stroke-linejoin:miter;stroke:rgb(0%,0%,0%);stroke-opacity:1;stroke-miterlimit:10;" d="M 5.635469 0.00025 C 5.635469 3.113531 3.112031 5.636969 -0.00125 5.636969 C -3.110625 5.636969 -5.634062 3.113531 -5.634062 0.00025 C -5.634062 -3.113031 -3.110625 -5.636469 -0.00125 -5.636469 C 3.112031 -5.636469 5.635469 -3.113031 5.635469 0.00025 Z M 5.635469 0.00025 " transform="matrix(1,0,0,-1,63.97,6.344)"/>
</g>
<path style=" stroke:none;fill-rule:nonzero;fill:rgb(0%,0%,0%);fill-opacity:1;" d="M 11.035156 6.34375 C 11.035156 4.269531 9.351562 2.585938 7.277344 2.585938 C 5.203125 2.585938 3.519531 4.269531 3.519531 6.34375 C 3.519531 8.417969 5.203125 10.101562 7.277344 10.101562 C 9.351562 10.101562 11.035156 8.417969 11.035156 6.34375 Z M 11.035156 6.34375 "/>
<g clip-path="url(#clip2)" clip-rule="nonzero">
<path style="fill:none;stroke-width:0.3985;stroke-linecap:butt;stroke-linejoin:miter;stroke:rgb(0%,0%,0%);stroke-opacity:1;stroke-miterlimit:10;" d="M -52.934844 0.00025 C -52.934844 2.074469 -54.618437 3.758062 -56.692656 3.758062 C -58.766875 3.758062 -60.450469 2.074469 -60.450469 0.00025 C -60.450469 -2.073969 -58.766875 -3.757563 -56.692656 -3.757563 C -54.618437 -3.757563 -52.934844 -2.073969 -52.934844 0.00025 Z M -52.934844 0.00025 " transform="matrix(1,0,0,-1,63.97,6.344)"/>
</g>
<g clip-path="url(#clip3)" clip-rule="nonzero">
<path style=" stroke:none;fill-rule:nonzero;fill:rgb(0%,0%,0%);fill-opacity:1;" d="M 124.421875 6.34375 C 124.421875 4.269531 122.738281 2.585938 120.664062 2.585938 C 118.589844 2.585938 116.90625 4.269531 116.90625 6.34375 C 116.90625 8.417969 118.589844 10.101562 120.664062 10.101562 C 122.738281 10.101562 124.421875 8.417969 124.421875 6.34375 Z M 124.421875 6.34375 "/>
</g>
<g clip-path="url(#clip4)" clip-rule="nonzero">
<path style="fill:none;stroke-width:0.3985;stroke-linecap:butt;stroke-linejoin:miter;stroke:rgb(0%,0%,0%);stroke-opacity:1;stroke-miterlimit:10;" d="M 60.451875 0.00025 C 60.451875 2.074469 58.768281 3.758062 56.694063 3.758062 C 54.619844 3.758062 52.93625 2.074469 52.93625 0.00025 C 52.93625 -2.073969 54.619844 -3.757563 56.694063 -3.757563 C 58.768281 -3.757563 60.451875 -2.073969 60.451875 0.00025 Z M 60.451875 0.00025 " transform="matrix(1,0,0,-1,63.97,6.344)"/>
</g>
</g>
</svg>
