<?xml version="1.0" encoding="UTF-8"?>
<svg xmlns="http://www.w3.org/2000/svg" xmlns:xlink="http://www.w3.org/1999/xlink" width="126.993pt" height="38.987pt" viewBox="0 0 126.993 38.987" version="1.1">
<defs>
<clipPath id="clip1">
  <path d="M 3 0 L 42 0 L 42 38.988281 L 3 38.988281 Z M 3 0 "/>
</clipPath>
<clipPath id="clip2">
  <path d="M 0 0 L 52 0 L 52 38.988281 L 0 38.988281 Z M 0 0 "/>
</clipPath>
<clipPath id="clip3">
  <path d="M 88 0 L 126.992188 0 L 126.992188 38.988281 L 88 38.988281 Z M 88 0 "/>
</clipPath>
<clipPath id="clip4">
  <path d="M 68 0 L 126.992188 0 L 126.992188 38.988281 L 68 38.988281 Z M 68 0 "/>
</clipPath>
</defs>
<g id="surface1">
<g clip-path="url(#clip1)" clip-rule="nonzero">
<path style=" stroke:none;fill-rule:nonzero;fill:rgb(100%,100%,100%);fill-opacity:1;" d="M 41.246094 19.492188 C 41.246094 9.117188 32.835938 0.707031 22.460938 0.707031 C 12.085938 0.707031 3.675781 9.117188 3.675781 19.492188 C 3.675781 29.867188 12.085938 38.277344 22.460938 38.277344 C 32.835938 38.277344 41.246094 29.867188 41.246094 19.492188 Z M 41.246094 19.492188 "/>
</g>
<g clip-path="url(#clip2)" clip-rule="nonzero">
<path style="fill:none;stroke-width:0.70865;stroke-linecap:butt;stroke-linejoin:miter;stroke:rgb(0%,0%,0%);stroke-opacity:1;stroke-miterlimit:10;" d="M -23.733906 0.0008125 C -23.733906 10.375812 -32.144063 18.785969 -42.519063 18.785969 C -52.894063 18.785969 -61.304219 10.375812 -61.304219 0.0008125 C -61.304219 -10.374188 -52.894063 -18.784344 -42.519063 -18.784344 C -32.144063 -18.784344 -23.733906 -10.374188 -23.733906 0.0008125 Z M -23.733906 0.0008125 " transform="matrix(1,0,0,-1,64.98,19.493)"/>
</g>
<g clip-path="url(#clip3)" clip-rule="nonzero">
<path style=" stroke:none;fill-rule:nonzero;fill:rgb(100%,100%,100%);fill-opacity:1;" d="M 126.285156 19.492188 C 126.285156 9.117188 117.875 0.707031 107.5 0.707031 C 97.125 0.707031 88.714844 9.117188 88.714844 19.492188 C 88.714844 29.867188 97.125 38.277344 107.5 38.277344 C 117.875 38.277344 126.285156 29.867188 126.285156 19.492188 Z M 126.285156 19.492188 "/>
</g>
<g clip-path="url(#clip4)" clip-rule="nonzero">
<path style="fill:none;stroke-width:1.41731;stroke-linecap:butt;stroke-linejoin:miter;stroke:rgb(0%,0%,0%);stroke-opacity:1;stroke-miterlimit:10;" d="M 61.305156 0.0008125 C 61.305156 10.375812 52.895 18.785969 42.52 18.785969 C 32.145 18.785969 23.734844 10.375812 23.734844 0.0008125 C 23.734844 -10.374188 32.145 -18.784344 42.52 -18.784344 C 52.895 -18.784344 61.305156 -10.374188 61.305156 0.0008125 Z M 61.305156 0.0008125 " transform="matrix(1,0,0,-1,64.98,19.493)"/>
</g>
</g>
</svg>
