<?xml version="1.0" encoding="UTF-8"?>
<svg xmlns="http://www.w3.org/2000/svg" xmlns:xlink="http://www.w3.org/1999/xlink" width="16.009pt" height="126.074pt" viewBox="0 0 16.009 126.074" version="1.1">
<defs>
<clipPath id="clip1">
  <path d="M 0 0 L 16.007812 0 L 16.007812 33 L 0 33 Z M 0 0 "/>
</clipPath>
<clipPath id="clip2">
  <path d="M 0 39 L 16.007812 39 L 16.007812 87 L 0 87 Z M 0 39 "/>
</clipPath>
<clipPath id="clip3">
  <path d="M 0 94 L 16.007812 94 L 16.007812 126.074219 L 0 126.074219 Z M 0 94 "/>
</clipPath>
</defs>
<g id="surface1">
<path style=" stroke:none;fill-rule:nonzero;fill:rgb(100%,100%,100%);fill-opacity:1;" d="M 15.300781 6.34375 C 15.300781 3.230469 12.777344 0.707031 9.664062 0.707031 C 6.550781 0.707031 4.03125 3.230469 4.03125 6.34375 C 4.03125 9.457031 6.550781 11.980469 9.664062 11.980469 C 12.777344 11.980469 15.300781 9.457031 15.300781 6.34375 Z M 15.300781 6.34375 "/>
<g clip-path="url(#clip1)" clip-rule="nonzero">
<path style="fill:none;stroke-width:1.41731;stroke-linecap:butt;stroke-linejoin:miter;stroke:rgb(75%,75%,75%);stroke-opacity:1;stroke-dasharray:1.41731,1.99255;stroke-miterlimit:10;" d="M 5.635781 0.00025 C 5.635781 3.113531 3.112344 5.636969 -0.0009375 5.636969 C -3.114219 5.636969 -5.63375 3.113531 -5.63375 0.00025 C -5.63375 -3.113031 -3.114219 -5.636469 -0.0009375 -5.636469 C 3.112344 -5.636469 5.635781 -3.113031 5.635781 0.00025 Z M 5.635781 0.00025 " transform="matrix(1,0,0,-1,9.665,6.344)"/>
</g>
<path style=" stroke:none;fill-rule:nonzero;fill:rgb(0%,0%,0%);fill-opacity:1;" d="M 13.421875 63.039062 C 13.421875 60.960938 11.738281 59.28125 9.664062 59.28125 C 7.589844 59.28125 5.90625 60.960938 5.90625 63.039062 C 5.90625 65.113281 7.589844 66.792969 9.664062 66.792969 C 11.738281 66.792969 13.421875 65.113281 13.421875 63.039062 Z M 13.421875 63.039062 "/>
<g clip-path="url(#clip2)" clip-rule="nonzero">
<path style="fill:none;stroke-width:1.41731;stroke-linecap:butt;stroke-linejoin:miter;stroke:rgb(50%,50%,50%);stroke-opacity:1;stroke-miterlimit:10;" d="M 3.756875 -56.695063 C 3.756875 -54.616938 2.073281 -52.93725 -0.0009375 -52.93725 C -2.075156 -52.93725 -3.75875 -54.616938 -3.75875 -56.695063 C -3.75875 -58.769281 -2.075156 -60.448969 -0.0009375 -60.448969 C 2.073281 -60.448969 3.756875 -58.769281 3.756875 -56.695063 Z M 3.756875 -56.695063 " transform="matrix(1,0,0,-1,9.665,6.344)"/>
</g>
<path style=" stroke:none;fill-rule:nonzero;fill:rgb(100%,100%,100%);fill-opacity:1;" d="M 15.300781 119.730469 C 15.300781 116.617188 12.777344 114.09375 9.664062 114.09375 C 6.550781 114.09375 4.03125 116.617188 4.03125 119.730469 C 4.03125 122.84375 6.550781 125.367188 9.664062 125.367188 C 12.777344 125.367188 15.300781 122.84375 15.300781 119.730469 Z M 15.300781 119.730469 "/>
<g clip-path="url(#clip3)" clip-rule="nonzero">
<path style="fill:none;stroke-width:1.41731;stroke-linecap:butt;stroke-linejoin:miter;stroke:rgb(75%,75%,75%);stroke-opacity:1;stroke-dasharray:1.41731,1.99255;stroke-miterlimit:10;" d="M 5.635781 -113.386469 C 5.635781 -110.273188 3.112344 -107.74975 -0.0009375 -107.74975 C -3.114219 -107.74975 -5.63375 -110.273188 -5.63375 -113.386469 C -5.63375 -116.49975 -3.114219 -119.023188 -0.0009375 -119.023188 C 3.112344 -119.023188 5.635781 -116.49975 5.635781 -113.386469 Z M 5.635781 -113.386469 " transform="matrix(1,0,0,-1,9.665,6.344)"/>
</g>
</g>
</svg>
