<?xml version="1.0" encoding="UTF-8"?>
<svg xmlns="http://www.w3.org/2000/svg" xmlns:xlink="http://www.w3.org/1999/xlink" width="70.684pt" height="39.017pt" viewBox="0 0 70.684 39.017" version="1.1">
<defs>
<clipPath id="clip1">
  <path d="M 28 25 L 43 25 L 43 39.015625 L 28 39.015625 Z M 28 25 "/>
</clipPath>
<clipPath id="clip2">
  <path d="M 56 25 L 70.683594 25 L 70.683594 39.015625 L 56 39.015625 Z M 56 25 "/>
</clipPath>
</defs>
<g id="surface1">
<g clip-path="url(#clip1)" clip-rule="nonzero">
<path style="fill:none;stroke-width:0.70865;stroke-linecap:butt;stroke-linejoin:miter;stroke:rgb(0%,0%,0%);stroke-opacity:1;stroke-miterlimit:10;" d="M -21.704625 6.639187 L -34.989781 6.639187 L -34.989781 -6.642063 L -21.704625 -6.642063 Z M -21.704625 6.639187 " transform="matrix(1,0,0,-1,63.689,32.022)"/>
</g>
<g clip-path="url(#clip2)" clip-rule="nonzero">
<path style="fill:none;stroke-width:0.70865;stroke-linecap:butt;stroke-linejoin:miter;stroke:rgb(0%,0%,0%);stroke-opacity:1;stroke-miterlimit:10;" d="M 6.643031 6.639187 L -6.642125 6.639187 L -6.642125 -6.642063 L 6.643031 -6.642063 Z M 6.643031 6.639187 " transform="matrix(1,0,0,-1,63.689,32.022)"/>
</g>
<path style="fill-rule:nonzero;fill:rgb(62.5%,62.5%,62.5%);fill-opacity:1;stroke-width:0.70865;stroke-linecap:butt;stroke-linejoin:miter;stroke:rgb(62.5%,62.5%,62.5%);stroke-opacity:1;stroke-miterlimit:10;" d="M -60.013219 25.025906 L -53.372594 25.025906 L -53.372594 31.666531 L -60.013219 31.666531 Z M -60.013219 25.025906 " transform="matrix(1,0,0,-1,63.689,32.022)"/>
</g>
</svg>
