<?xml version="1.0" encoding="UTF-8"?>
<svg xmlns="http://www.w3.org/2000/svg" xmlns:xlink="http://www.w3.org/1999/xlink" width="288.203pt" height="114.803pt" viewBox="0 0 288.203 114.803" version="1.1">
<defs>
<clipPath id="clip1">
  <path d="M 230 0 L 288.203125 0 L 288.203125 59 L 230 59 Z M 230 0 "/>
</clipPath>
<clipPath id="clip2">
  <path d="M 3 56 L 62 56 L 62 114.804688 L 3 114.804688 Z M 3 56 "/>
</clipPath>
<clipPath id="clip3">
  <path d="M 116 56 L 175 56 L 175 114.804688 L 116 114.804688 Z M 116 56 "/>
</clipPath>
<clipPath id="clip4">
  <path d="M 230 56 L 288.203125 56 L 288.203125 114.804688 L 230 114.804688 Z M 230 56 "/>
</clipPath>
</defs>
<g id="surface1">
<path style="fill-rule:nonzero;fill:rgb(100%,75%,75%);fill-opacity:1;stroke-width:1.41731;stroke-linecap:butt;stroke-linejoin:miter;stroke:rgb(0%,0%,0%);stroke-opacity:1;stroke-miterlimit:10;" d="M -28.348656 -28.347344 L 28.346656 -28.347344 L 28.346656 28.347969 L -28.348656 28.347969 Z M -28.348656 -28.347344 " transform="matrix(1,0,0,-1,32.376,29.055)"/>
<path style="fill:none;stroke-width:1.41731;stroke-linecap:butt;stroke-linejoin:miter;stroke:rgb(0%,0%,0%);stroke-opacity:1;stroke-miterlimit:10;" d="M 28.346656 -28.347344 L 85.041969 -28.347344 L 85.041969 28.347969 L 28.346656 28.347969 Z M 28.346656 -28.347344 " transform="matrix(1,0,0,-1,32.376,29.055)"/>
<path style="fill-rule:nonzero;fill:rgb(75%,75%,100%);fill-opacity:1;stroke-width:1.41731;stroke-linecap:butt;stroke-linejoin:miter;stroke:rgb(0%,0%,0%);stroke-opacity:1;stroke-miterlimit:10;" d="M 85.041969 -28.347344 L 141.733375 -28.347344 L 141.733375 28.347969 L 85.041969 28.347969 Z M 85.041969 -28.347344 " transform="matrix(1,0,0,-1,32.376,29.055)"/>
<path style="fill:none;stroke-width:1.41731;stroke-linecap:butt;stroke-linejoin:miter;stroke:rgb(0%,0%,0%);stroke-opacity:1;stroke-miterlimit:10;" d="M 141.733375 -28.347344 L 198.428687 -28.347344 L 198.428687 28.347969 L 141.733375 28.347969 Z M 141.733375 -28.347344 " transform="matrix(1,0,0,-1,32.376,29.055)"/>
<path style=" stroke:none;fill-rule:nonzero;fill:rgb(75%,100%,75%);fill-opacity:1;" d="M 230.804688 57.402344 L 287.496094 57.402344 L 287.496094 0.707031 L 230.804688 0.707031 Z M 230.804688 57.402344 "/>
<g clip-path="url(#clip1)" clip-rule="nonzero">
<path style="fill:none;stroke-width:1.41731;stroke-linecap:butt;stroke-linejoin:miter;stroke:rgb(0%,0%,0%);stroke-opacity:1;stroke-miterlimit:10;" d="M 198.428687 -28.347344 L 255.120094 -28.347344 L 255.120094 28.347969 L 198.428687 28.347969 Z M 198.428687 -28.347344 " transform="matrix(1,0,0,-1,32.376,29.055)"/>
</g>
<g clip-path="url(#clip2)" clip-rule="nonzero">
<path style="fill:none;stroke-width:1.41731;stroke-linecap:butt;stroke-linejoin:miter;stroke:rgb(0%,0%,0%);stroke-opacity:1;stroke-miterlimit:10;" d="M -28.348656 -85.03875 L 28.346656 -85.03875 L 28.346656 -28.347344 L -28.348656 -28.347344 Z M -28.348656 -85.03875 " transform="matrix(1,0,0,-1,32.376,29.055)"/>
</g>
<g clip-path="url(#clip3)" clip-rule="nonzero">
<path style="fill:none;stroke-width:1.41731;stroke-linecap:butt;stroke-linejoin:miter;stroke:rgb(0%,0%,0%);stroke-opacity:1;stroke-miterlimit:10;" d="M 85.041969 -85.03875 L 141.733375 -85.03875 L 141.733375 -28.347344 L 85.041969 -28.347344 Z M 85.041969 -85.03875 " transform="matrix(1,0,0,-1,32.376,29.055)"/>
</g>
<g clip-path="url(#clip4)" clip-rule="nonzero">
<path style="fill:none;stroke-width:1.41731;stroke-linecap:butt;stroke-linejoin:miter;stroke:rgb(0%,0%,0%);stroke-opacity:1;stroke-miterlimit:10;" d="M 198.428687 -85.03875 L 255.120094 -85.03875 L 255.120094 -28.347344 L 198.428687 -28.347344 Z M 198.428687 -85.03875 " transform="matrix(1,0,0,-1,32.376,29.055)"/>
</g>
</g>
</svg>
