<?xml version="1.0" encoding="UTF-8"?>
<svg xmlns="http://www.w3.org/2000/svg" xmlns:xlink="http://www.w3.org/1999/xlink" width="100.569pt" height="67.119pt" viewBox="0 0 100.569 67.119" version="1.1">
<defs>
<clipPath id="clip1">
  <path d="M 33 0 L 100.570312 0 L 100.570312 67.117188 L 33 67.117188 Z M 33 0 "/>
</clipPath>
</defs>
<g id="surface1">
<path style="fill:none;stroke-width:0.70865;stroke-linecap:butt;stroke-linejoin:miter;stroke:rgb(0%,0%,0%);stroke-opacity:1;stroke-miterlimit:10;" d="M -50.051969 6.641031 L -63.333219 6.641031 L -63.333219 -6.640219 L -50.051969 -6.640219 Z M -50.051969 6.641031 " transform="matrix(1,0,0,-1,67.009,33.559)"/>
<g clip-path="url(#clip1)" clip-rule="nonzero">
<path style="fill:none;stroke-width:0.70865;stroke-linecap:butt;stroke-linejoin:miter;stroke:rgb(0%,0%,0%);stroke-opacity:1;stroke-miterlimit:10;" d="M 33.205844 33.207437 L -33.204313 33.207437 L -33.204313 -33.206625 L 33.205844 -33.206625 Z M 33.205844 33.207437 " transform="matrix(1,0,0,-1,67.009,33.559)"/>
</g>
<path style="fill-rule:nonzero;fill:rgb(62.5%,62.5%,62.5%);fill-opacity:1;stroke-width:0.70865;stroke-linecap:butt;stroke-linejoin:miter;stroke:rgb(62.5%,62.5%,62.5%);stroke-opacity:1;stroke-miterlimit:10;" d="M -60.012906 25.02775 L -53.372281 25.02775 L -53.372281 31.668375 L -60.012906 31.668375 Z M -60.012906 25.02775 " transform="matrix(1,0,0,-1,67.009,33.559)"/>
</g>
</svg>
