<?xml version="1.0" encoding="UTF-8"?>
<svg xmlns="http://www.w3.org/2000/svg" xmlns:xlink="http://www.w3.org/1999/xlink" width="16.009pt" height="180.379pt" viewBox="0 0 16.009 180.379" version="1.1">
<defs>
<clipPath id="clip1">
  <path d="M 0 34 L 16.007812 34 L 16.007812 87 L 0 87 Z M 0 34 "/>
</clipPath>
<clipPath id="clip2">
  <path d="M 0 107 L 16.007812 107 L 16.007812 127 L 0 127 Z M 0 107 "/>
</clipPath>
<clipPath id="clip3">
  <path d="M 0 148 L 16.007812 148 L 16.007812 180.378906 L 0 180.378906 Z M 0 148 "/>
</clipPath>
<clipPath id="clip4">
  <path d="M 0 0 L 16.007812 0 L 16.007812 14 L 0 14 Z M 0 0 "/>
</clipPath>
<clipPath id="clip5">
  <path d="M 0 34 L 16.007812 34 L 16.007812 87 L 0 87 Z M 0 34 "/>
</clipPath>
</defs>
<g id="surface1">
<path style=" stroke:none;fill-rule:nonzero;fill:rgb(100%,100%,100%);fill-opacity:1;" d="M 15.300781 60.648438 C 15.300781 57.535156 12.777344 55.011719 9.664062 55.011719 C 6.550781 55.011719 4.03125 57.535156 4.03125 60.648438 C 4.03125 63.761719 6.550781 66.285156 9.664062 66.285156 C 12.777344 66.285156 15.300781 63.761719 15.300781 60.648438 Z M 15.300781 60.648438 "/>
<g clip-path="url(#clip1)" clip-rule="nonzero">
<path style="fill:none;stroke-width:1.41731;stroke-linecap:butt;stroke-linejoin:miter;stroke:rgb(0%,0%,0%);stroke-opacity:1;stroke-miterlimit:10;" d="M 5.635781 0.0005625 C 5.635781 3.113844 3.112344 5.637281 -0.0009375 5.637281 C -3.114219 5.637281 -5.63375 3.113844 -5.63375 0.0005625 C -5.63375 -3.112719 -3.114219 -5.636156 -0.0009375 -5.636156 C 3.112344 -5.636156 5.635781 -3.112719 5.635781 0.0005625 Z M 5.635781 0.0005625 " transform="matrix(1,0,0,-1,9.665,60.649)"/>
</g>
<path style=" stroke:none;fill-rule:nonzero;fill:rgb(0%,0%,0%);fill-opacity:1;" d="M 13.421875 117.34375 C 13.421875 115.269531 11.738281 113.585938 9.664062 113.585938 C 7.589844 113.585938 5.90625 115.269531 5.90625 117.34375 C 5.90625 119.417969 7.589844 121.101562 9.664062 121.101562 C 11.738281 121.101562 13.421875 119.417969 13.421875 117.34375 Z M 13.421875 117.34375 "/>
<g clip-path="url(#clip2)" clip-rule="nonzero">
<path style="fill:none;stroke-width:0.3985;stroke-linecap:butt;stroke-linejoin:miter;stroke:rgb(0%,0%,0%);stroke-opacity:1;stroke-miterlimit:10;" d="M 3.756875 -56.69475 C 3.756875 -54.620531 2.073281 -52.936938 -0.0009375 -52.936938 C -2.075156 -52.936938 -3.75875 -54.620531 -3.75875 -56.69475 C -3.75875 -58.768969 -2.075156 -60.452563 -0.0009375 -60.452563 C 2.073281 -60.452563 3.756875 -58.768969 3.756875 -56.69475 Z M 3.756875 -56.69475 " transform="matrix(1,0,0,-1,9.665,60.649)"/>
</g>
<path style=" stroke:none;fill-rule:nonzero;fill:rgb(100%,100%,100%);fill-opacity:1;" d="M 15.300781 174.035156 C 15.300781 170.921875 12.777344 168.402344 9.664062 168.402344 C 6.550781 168.402344 4.03125 170.921875 4.03125 174.035156 C 4.03125 177.148438 6.550781 179.671875 9.664062 179.671875 C 12.777344 179.671875 15.300781 177.148438 15.300781 174.035156 Z M 15.300781 174.035156 "/>
<g clip-path="url(#clip3)" clip-rule="nonzero">
<path style="fill:none;stroke-width:1.41731;stroke-linecap:butt;stroke-linejoin:miter;stroke:rgb(0%,0%,0%);stroke-opacity:1;stroke-miterlimit:10;" d="M 5.635781 -113.386156 C 5.635781 -110.272875 3.112344 -107.753344 -0.0009375 -107.753344 C -3.114219 -107.753344 -5.63375 -110.272875 -5.63375 -113.386156 C -5.63375 -116.499438 -3.114219 -119.022875 -0.0009375 -119.022875 C 3.112344 -119.022875 5.635781 -116.499438 5.635781 -113.386156 Z M 5.635781 -113.386156 " transform="matrix(1,0,0,-1,9.665,60.649)"/>
</g>
<path style=" stroke:none;fill-rule:nonzero;fill:rgb(0%,0%,0%);fill-opacity:1;" d="M 13.421875 3.957031 C 13.421875 1.878906 11.738281 0.199219 9.664062 0.199219 C 7.589844 0.199219 5.90625 1.878906 5.90625 3.957031 C 5.90625 6.03125 7.589844 7.710938 9.664062 7.710938 C 11.738281 7.710938 13.421875 6.03125 13.421875 3.957031 Z M 13.421875 3.957031 "/>
<g clip-path="url(#clip4)" clip-rule="nonzero">
<path style="fill:none;stroke-width:0.3985;stroke-linecap:butt;stroke-linejoin:miter;stroke:rgb(0%,0%,0%);stroke-opacity:1;stroke-miterlimit:10;" d="M 3.756875 56.691969 C 3.756875 58.770094 2.073281 60.449781 -0.0009375 60.449781 C -2.075156 60.449781 -3.75875 58.770094 -3.75875 56.691969 C -3.75875 54.61775 -2.075156 52.938062 -0.0009375 52.938062 C 2.073281 52.938062 3.756875 54.61775 3.756875 56.691969 Z M 3.756875 56.691969 " transform="matrix(1,0,0,-1,9.665,60.649)"/>
</g>
<path style=" stroke:none;fill-rule:nonzero;fill:rgb(100%,100%,100%);fill-opacity:1;" d="M 15.300781 60.648438 C 15.300781 57.535156 12.777344 55.011719 9.664062 55.011719 C 6.550781 55.011719 4.03125 57.535156 4.03125 60.648438 C 4.03125 63.761719 6.550781 66.285156 9.664062 66.285156 C 12.777344 66.285156 15.300781 63.761719 15.300781 60.648438 Z M 15.300781 60.648438 "/>
<g clip-path="url(#clip5)" clip-rule="nonzero">
<path style="fill:none;stroke-width:1.41731;stroke-linecap:butt;stroke-linejoin:miter;stroke:rgb(0%,0%,0%);stroke-opacity:1;stroke-miterlimit:10;" d="M 5.635781 0.0005625 C 5.635781 3.113844 3.112344 5.637281 -0.0009375 5.637281 C -3.114219 5.637281 -5.63375 3.113844 -5.63375 0.0005625 C -5.63375 -3.112719 -3.114219 -5.636156 -0.0009375 -5.636156 C 3.112344 -5.636156 5.635781 -3.112719 5.635781 0.0005625 Z M 5.635781 0.0005625 " transform="matrix(1,0,0,-1,9.665,60.649)"/>
</g>
</g>
</svg>
