<?xml version="1.0" encoding="UTF-8"?>
<svg xmlns="http://www.w3.org/2000/svg" xmlns:xlink="http://www.w3.org/1999/xlink" width="42.308pt" height="124.027pt" viewBox="0 0 42.308 124.027" version="1.1">
<defs>
<clipPath id="clip1">
  <path d="M 0 65 L 42.308594 65 L 42.308594 124.027344 L 0 124.027344 Z M 0 65 "/>
</clipPath>
<clipPath id="clip2">
  <path d="M 0 0 L 42.308594 0 L 42.308594 59 L 0 59 Z M 0 0 "/>
</clipPath>
</defs>
<g id="surface1">
<path style=" stroke:none;fill-rule:nonzero;fill:rgb(100%,100%,100%);fill-opacity:1;" d="M 41.601562 104.535156 C 41.601562 94.160156 33.191406 85.75 22.816406 85.75 C 12.441406 85.75 4.03125 94.160156 4.03125 104.535156 C 4.03125 114.910156 12.441406 123.320312 22.816406 123.320312 C 33.191406 123.320312 41.601562 114.910156 41.601562 104.535156 Z M 41.601562 104.535156 "/>
<g clip-path="url(#clip1)" clip-rule="nonzero">
<path style="fill:none;stroke-width:1.41731;stroke-linecap:butt;stroke-linejoin:miter;stroke:rgb(0%,0%,0%);stroke-opacity:1;stroke-miterlimit:10;" d="M 18.786562 -42.521156 C 18.786562 -32.146156 10.376406 -23.736 0.00140625 -23.736 C -10.373594 -23.736 -18.78375 -32.146156 -18.78375 -42.521156 C -18.78375 -52.896156 -10.373594 -61.306312 0.00140625 -61.306312 C 10.376406 -61.306312 18.786562 -52.896156 18.786562 -42.521156 Z M 18.786562 -42.521156 " transform="matrix(1,0,0,-1,22.815,62.014)"/>
</g>
<path style=" stroke:none;fill-rule:nonzero;fill:rgb(100%,100%,100%);fill-opacity:1;" d="M 41.601562 19.492188 C 41.601562 9.117188 33.191406 0.707031 22.816406 0.707031 C 12.441406 0.707031 4.03125 9.117188 4.03125 19.492188 C 4.03125 29.867188 12.441406 38.277344 22.816406 38.277344 C 33.191406 38.277344 41.601562 29.867188 41.601562 19.492188 Z M 41.601562 19.492188 "/>
<g clip-path="url(#clip2)" clip-rule="nonzero">
<path style="fill:none;stroke-width:1.41731;stroke-linecap:butt;stroke-linejoin:miter;stroke:rgb(0%,0%,0%);stroke-opacity:1;stroke-miterlimit:10;" d="M 18.786562 42.521813 C 18.786562 52.896813 10.376406 61.306969 0.00140625 61.306969 C -10.373594 61.306969 -18.78375 52.896813 -18.78375 42.521813 C -18.78375 32.146813 -10.373594 23.736656 0.00140625 23.736656 C 10.376406 23.736656 18.786562 32.146813 18.786562 42.521813 Z M 18.786562 42.521813 " transform="matrix(1,0,0,-1,22.815,62.014)"/>
</g>
</g>
</svg>
