<?xml version="1.0" encoding="UTF-8"?>
<svg xmlns="http://www.w3.org/2000/svg" xmlns:xlink="http://www.w3.org/1999/xlink" width="97.955pt" height="94.634pt" viewBox="0 0 97.955 94.634" version="1.1">
<defs>
<clipPath id="clip1">
  <path d="M 0 0 L 97.953125 0 L 97.953125 94.632812 L 0 94.632812 Z M 0 0 "/>
</clipPath>
</defs>
<g id="surface1">
<g clip-path="url(#clip1)" clip-rule="nonzero">
<path style="fill:none;stroke-width:0.70865;stroke-linecap:butt;stroke-linejoin:miter;stroke:rgb(0%,0%,0%);stroke-opacity:1;stroke-miterlimit:10;" d="M 18.617562 0.00059375 C 18.617562 25.938094 -2.409781 46.961531 -28.347281 46.961531 C -54.284781 46.961531 -75.308219 25.938094 -75.308219 0.00059375 C -75.308219 -25.936906 -54.284781 -46.96425 -28.347281 -46.96425 C -2.409781 -46.96425 18.617562 -25.936906 18.617562 0.00059375 Z M 18.617562 0.00059375 " transform="matrix(1,0,0,-1,78.984,47.317)"/>
</g>
<path style="fill-rule:nonzero;fill:rgb(62.5%,62.5%,62.5%);fill-opacity:1;stroke-width:0.70865;stroke-linecap:butt;stroke-linejoin:miter;stroke:rgb(62.5%,62.5%,62.5%);stroke-opacity:1;stroke-miterlimit:10;" d="M -60.01525 25.027938 L -53.374625 25.027938 L -53.374625 31.668563 L -60.01525 31.668563 Z M -60.01525 25.027938 " transform="matrix(1,0,0,-1,78.984,47.317)"/>
</g>
</svg>
