<?xml version="1.0" encoding="UTF-8"?>
<svg xmlns="http://www.w3.org/2000/svg" xmlns:xlink="http://www.w3.org/1999/xlink" width="43.726pt" height="40.405pt" viewBox="0 0 43.726 40.405" version="1.1">
<g id="surface1">
<path style=" stroke:none;fill-rule:nonzero;fill:rgb(100%,100%,100%);fill-opacity:1;" d="M 42.308594 20.203125 C 42.308594 9.828125 33.898438 1.417969 23.523438 1.417969 C 13.148438 1.417969 4.738281 9.828125 4.738281 20.203125 C 4.738281 30.578125 13.148438 38.988281 23.523438 38.988281 C 33.898438 38.988281 42.308594 30.578125 42.308594 20.203125 Z M 42.308594 20.203125 "/>
<path style="fill:none;stroke-width:2.83466;stroke-linecap:butt;stroke-linejoin:miter;stroke:rgb(0%,0%,0%);stroke-opacity:1;stroke-miterlimit:10;" d="M 18.785594 -56.693125 C 18.785594 -46.318125 10.375438 -37.907969 0.0004375 -37.907969 C -10.374562 -37.907969 -18.784719 -46.318125 -18.784719 -56.693125 C -18.784719 -67.068125 -10.374562 -75.478281 0.0004375 -75.478281 C 10.375438 -75.478281 18.785594 -67.068125 18.785594 -56.693125 Z M 18.785594 -56.693125 " transform="matrix(1,0,0,-1,23.523,-36.49)"/>
</g>
</svg>
