<?xml version="1.0" encoding="UTF-8"?>
<svg xmlns="http://www.w3.org/2000/svg" xmlns:xlink="http://www.w3.org/1999/xlink" width="80.646pt" height="48.978pt" viewBox="0 0 80.646 48.978" version="1.1">
<defs>
<clipPath id="clip1">
  <path d="M 18 15 L 53 15 L 53 48.976562 L 18 48.976562 Z M 18 15 "/>
</clipPath>
<clipPath id="clip2">
  <path d="M 46 15 L 80.644531 15 L 80.644531 48.976562 L 46 48.976562 Z M 46 15 "/>
</clipPath>
</defs>
<g id="surface1">
<g clip-path="url(#clip1)" clip-rule="nonzero">
<path style="fill:none;stroke-width:0.70865;stroke-linecap:butt;stroke-linejoin:miter;stroke:rgb(0%,0%,0%);stroke-opacity:1;stroke-miterlimit:10;" d="M -11.743688 16.603031 L -44.950719 16.603031 L -44.950719 -16.604 L -11.743688 -16.604 Z M -11.743688 16.603031 " transform="matrix(1,0,0,-1,63.689,32.021)"/>
</g>
<g clip-path="url(#clip2)" clip-rule="nonzero">
<path style="fill:none;stroke-width:0.70865;stroke-linecap:butt;stroke-linejoin:miter;stroke:rgb(0%,0%,0%);stroke-opacity:1;stroke-miterlimit:10;" d="M 16.603969 16.603031 L -16.603063 16.603031 L -16.603063 -16.604 L 16.603969 -16.604 Z M 16.603969 16.603031 " transform="matrix(1,0,0,-1,63.689,32.021)"/>
</g>
<path style="fill-rule:nonzero;fill:rgb(62.5%,62.5%,62.5%);fill-opacity:1;stroke-width:0.70865;stroke-linecap:butt;stroke-linejoin:miter;stroke:rgb(62.5%,62.5%,62.5%);stroke-opacity:1;stroke-miterlimit:10;" d="M -60.013219 25.024906 L -53.372594 25.024906 L -53.372594 31.665531 L -60.013219 31.665531 Z M -60.013219 25.024906 " transform="matrix(1,0,0,-1,63.689,32.021)"/>
</g>
</svg>
