<?xml version="1.0" encoding="UTF-8"?>
<svg xmlns="http://www.w3.org/2000/svg" xmlns:xlink="http://www.w3.org/1999/xlink" width="55.773pt" height="38.279pt" viewBox="0 0 55.773 38.279" version="1.1">
<defs>
<clipPath id="clip1">
  <path d="M 0 0 L 52 0 L 52 38.277344 L 0 38.277344 Z M 0 0 "/>
</clipPath>
<clipPath id="clip2">
  <path d="M 7 0 L 55.773438 0 L 55.773438 38.277344 L 7 38.277344 Z M 7 0 "/>
</clipPath>
</defs>
<g id="surface1">
<g clip-path="url(#clip1)" clip-rule="nonzero">
<path style="fill:none;stroke-width:0.70865;stroke-linecap:butt;stroke-linejoin:miter;stroke:rgb(0%,0%,0%);stroke-opacity:1;stroke-miterlimit:10;" d="M 11.699094 -0.000625 C 11.699094 10.374375 3.288937 18.784531 -7.086063 18.784531 C -17.461063 18.784531 -25.871219 10.374375 -25.871219 -0.000625 C -25.871219 -10.375625 -17.461063 -18.785781 -7.086063 -18.785781 C 3.288937 -18.785781 11.699094 -10.375625 11.699094 -0.000625 Z M 11.699094 -0.000625 " transform="matrix(1,0,0,-1,29.547,19.14)"/>
</g>
<g clip-path="url(#clip2)" clip-rule="nonzero">
<path style="fill:none;stroke-width:0.70865;stroke-linecap:butt;stroke-linejoin:miter;stroke:rgb(0%,0%,0%);stroke-opacity:1;stroke-miterlimit:10;" d="M 25.870969 -0.000625 C 25.870969 10.374375 17.460812 18.784531 7.085812 18.784531 C -3.289188 18.784531 -11.699344 10.374375 -11.699344 -0.000625 C -11.699344 -10.375625 -3.289188 -18.785781 7.085812 -18.785781 C 17.460812 -18.785781 25.870969 -10.375625 25.870969 -0.000625 Z M 25.870969 -0.000625 " transform="matrix(1,0,0,-1,29.547,19.14)"/>
</g>
</g>
</svg>
