<?xml version="1.0" encoding="UTF-8"?>
<svg xmlns="http://www.w3.org/2000/svg" xmlns:xlink="http://www.w3.org/1999/xlink" width="16.009pt" height="97.728pt" viewBox="0 0 16.009 97.728" version="1.1">
<defs>
<clipPath id="clip1">
  <path d="M 0 0 L 16.007812 0 L 16.007812 33 L 0 33 Z M 0 0 "/>
</clipPath>
<clipPath id="clip2">
  <path d="M 0 25 L 16.007812 25 L 16.007812 45 L 0 45 Z M 0 25 "/>
</clipPath>
<clipPath id="clip3">
  <path d="M 4 85 L 16 85 L 16 97.726562 L 4 97.726562 Z M 4 85 "/>
</clipPath>
<clipPath id="clip4">
  <path d="M 0 65 L 16.007812 65 L 16.007812 97.726562 L 0 97.726562 Z M 0 65 "/>
</clipPath>
</defs>
<g id="surface1">
<path style=" stroke:none;fill-rule:nonzero;fill:rgb(100%,100%,100%);fill-opacity:1;" d="M 15.300781 6.34375 C 15.300781 3.234375 12.777344 0.710938 9.664062 0.710938 C 6.550781 0.710938 4.03125 3.234375 4.03125 6.34375 C 4.03125 9.457031 6.550781 11.980469 9.664062 11.980469 C 12.777344 11.980469 15.300781 9.457031 15.300781 6.34375 Z M 15.300781 6.34375 "/>
<g clip-path="url(#clip1)" clip-rule="nonzero">
<path style="fill:none;stroke-width:1.41731;stroke-linecap:butt;stroke-linejoin:miter;stroke:rgb(0%,0%,0%);stroke-opacity:1;stroke-miterlimit:10;" d="M 5.635781 0.00125 C 5.635781 3.110625 3.112344 5.634062 -0.0009375 5.634062 C -3.114219 5.634062 -5.63375 3.110625 -5.63375 0.00125 C -5.63375 -3.112031 -3.114219 -5.635469 -0.0009375 -5.635469 C 3.112344 -5.635469 5.635781 -3.112031 5.635781 0.00125 Z M 5.635781 0.00125 " transform="matrix(1,0,0,-1,9.665,6.345)"/>
</g>
<path style=" stroke:none;fill-rule:nonzero;fill:rgb(0%,0%,0%);fill-opacity:1;" d="M 13.421875 34.691406 C 13.421875 32.617188 11.738281 30.933594 9.664062 30.933594 C 7.589844 30.933594 5.90625 32.617188 5.90625 34.691406 C 5.90625 36.765625 7.589844 38.449219 9.664062 38.449219 C 11.738281 38.449219 13.421875 36.765625 13.421875 34.691406 Z M 13.421875 34.691406 "/>
<g clip-path="url(#clip2)" clip-rule="nonzero">
<path style="fill:none;stroke-width:0.3985;stroke-linecap:butt;stroke-linejoin:miter;stroke:rgb(0%,0%,0%);stroke-opacity:1;stroke-miterlimit:10;" d="M 3.756875 -28.346406 C 3.756875 -26.272188 2.073281 -24.588594 -0.0009375 -24.588594 C -2.075156 -24.588594 -3.75875 -26.272188 -3.75875 -28.346406 C -3.75875 -30.420625 -2.075156 -32.104219 -0.0009375 -32.104219 C 2.073281 -32.104219 3.756875 -30.420625 3.756875 -28.346406 Z M 3.756875 -28.346406 " transform="matrix(1,0,0,-1,9.665,6.345)"/>
</g>
<g clip-path="url(#clip3)" clip-rule="nonzero">
<path style=" stroke:none;fill-rule:nonzero;fill:rgb(100%,100%,100%);fill-opacity:1;" d="M 15.300781 91.386719 C 15.300781 88.273438 12.777344 85.75 9.664062 85.75 C 6.550781 85.75 4.03125 88.273438 4.03125 91.386719 C 4.03125 94.496094 6.550781 97.019531 9.664062 97.019531 C 12.777344 97.019531 15.300781 94.496094 15.300781 91.386719 Z M 15.300781 91.386719 "/>
</g>
<g clip-path="url(#clip4)" clip-rule="nonzero">
<path style="fill:none;stroke-width:1.41731;stroke-linecap:butt;stroke-linejoin:miter;stroke:rgb(0%,0%,0%);stroke-opacity:1;stroke-miterlimit:10;" d="M 5.635781 -85.041719 C 5.635781 -81.928438 3.112344 -79.405 -0.0009375 -79.405 C -3.114219 -79.405 -5.63375 -81.928438 -5.63375 -85.041719 C -5.63375 -88.151094 -3.114219 -90.674531 -0.0009375 -90.674531 C 3.112344 -90.674531 5.635781 -88.151094 5.635781 -85.041719 Z M 5.635781 -85.041719 " transform="matrix(1,0,0,-1,9.665,6.345)"/>
</g>
</g>
</svg>
