<?xml version="1.0" encoding="UTF-8"?>
<svg xmlns="http://www.w3.org/2000/svg" xmlns:xlink="http://www.w3.org/1999/xlink" width="98.292pt" height="38.279pt" viewBox="0 0 98.292 38.279" version="1.1">
<defs>
<clipPath id="clip1">
  <path d="M 0 0 L 52 0 L 52 38.277344 L 0 38.277344 Z M 0 0 "/>
</clipPath>
<clipPath id="clip2">
  <path d="M 50 0 L 98.292969 0 L 98.292969 38.277344 L 50 38.277344 Z M 50 0 "/>
</clipPath>
</defs>
<g id="surface1">
<path style=" stroke:none;fill-rule:nonzero;fill:rgb(100%,100%,100%);fill-opacity:1;" d="M 41.246094 19.140625 C 41.246094 8.765625 32.835938 0.355469 22.460938 0.355469 C 12.085938 0.355469 3.675781 8.765625 3.675781 19.140625 C 3.675781 29.515625 12.085938 37.925781 22.460938 37.925781 C 32.835938 37.925781 41.246094 29.515625 41.246094 19.140625 Z M 41.246094 19.140625 "/>
<g clip-path="url(#clip1)" clip-rule="nonzero">
<path style="fill:none;stroke-width:0.70865;stroke-linecap:butt;stroke-linejoin:miter;stroke:rgb(0%,0%,0%);stroke-opacity:1;stroke-miterlimit:10;" d="M -23.733906 -0.000625 C -23.733906 10.374375 -32.144063 18.784531 -42.519063 18.784531 C -52.894063 18.784531 -61.304219 10.374375 -61.304219 -0.000625 C -61.304219 -10.375625 -52.894063 -18.785781 -42.519063 -18.785781 C -32.144063 -18.785781 -23.733906 -10.375625 -23.733906 -0.000625 Z M -23.733906 -0.000625 " transform="matrix(1,0,0,-1,64.98,19.14)"/>
</g>
<path style=" stroke:none;fill-rule:nonzero;fill:rgb(100%,100%,100%);fill-opacity:1;" d="M 97.9375 19.140625 C 97.9375 8.765625 89.527344 0.355469 79.152344 0.355469 C 68.777344 0.355469 60.367188 8.765625 60.367188 19.140625 C 60.367188 29.515625 68.777344 37.925781 79.152344 37.925781 C 89.527344 37.925781 97.9375 29.515625 97.9375 19.140625 Z M 97.9375 19.140625 "/>
<g clip-path="url(#clip2)" clip-rule="nonzero">
<path style="fill:none;stroke-width:0.70865;stroke-linecap:butt;stroke-linejoin:miter;stroke:rgb(0%,0%,0%);stroke-opacity:1;stroke-miterlimit:10;" d="M 32.9575 -0.000625 C 32.9575 10.374375 24.547344 18.784531 14.172344 18.784531 C 3.797344 18.784531 -4.612813 10.374375 -4.612813 -0.000625 C -4.612813 -10.375625 3.797344 -18.785781 14.172344 -18.785781 C 24.547344 -18.785781 32.9575 -10.375625 32.9575 -0.000625 Z M 32.9575 -0.000625 " transform="matrix(1,0,0,-1,64.98,19.14)"/>
</g>
</g>
</svg>
