<?xml version="1.0" encoding="UTF-8"?>
<svg xmlns="http://www.w3.org/2000/svg" xmlns:xlink="http://www.w3.org/1999/xlink" width="16.009pt" height="69.381pt" viewBox="0 0 16.009 69.381" version="1.1">
<defs>
<clipPath id="clip1">
  <path d="M 0 0 L 16.007812 0 L 16.007812 33 L 0 33 Z M 0 0 "/>
</clipPath>
<clipPath id="clip2">
  <path d="M 0 25 L 16.007812 25 L 16.007812 45 L 0 45 Z M 0 25 "/>
</clipPath>
<clipPath id="clip3">
  <path d="M 0 37 L 16.007812 37 L 16.007812 69.382812 L 0 69.382812 Z M 0 37 "/>
</clipPath>
</defs>
<g id="surface1">
<path style=" stroke:none;fill-rule:nonzero;fill:rgb(100%,100%,100%);fill-opacity:1;" d="M 15.300781 6.34375 C 15.300781 3.230469 12.777344 0.707031 9.664062 0.707031 C 6.550781 0.707031 4.03125 3.230469 4.03125 6.34375 C 4.03125 9.457031 6.550781 11.980469 9.664062 11.980469 C 12.777344 11.980469 15.300781 9.457031 15.300781 6.34375 Z M 15.300781 6.34375 "/>
<g clip-path="url(#clip1)" clip-rule="nonzero">
<path style="fill:none;stroke-width:1.41731;stroke-linecap:butt;stroke-linejoin:miter;stroke:rgb(0%,0%,0%);stroke-opacity:1;stroke-miterlimit:10;" d="M 5.635781 0.00025 C 5.635781 3.113531 3.112344 5.636969 -0.0009375 5.636969 C -3.114219 5.636969 -5.63375 3.113531 -5.63375 0.00025 C -5.63375 -3.113031 -3.114219 -5.636469 -0.0009375 -5.636469 C 3.112344 -5.636469 5.635781 -3.113031 5.635781 0.00025 Z M 5.635781 0.00025 " transform="matrix(1,0,0,-1,9.665,6.344)"/>
</g>
<path style=" stroke:none;fill-rule:nonzero;fill:rgb(0%,0%,0%);fill-opacity:1;" d="M 13.421875 34.691406 C 13.421875 32.617188 11.738281 30.933594 9.664062 30.933594 C 7.589844 30.933594 5.90625 32.617188 5.90625 34.691406 C 5.90625 36.765625 7.589844 38.449219 9.664062 38.449219 C 11.738281 38.449219 13.421875 36.765625 13.421875 34.691406 Z M 13.421875 34.691406 "/>
<g clip-path="url(#clip2)" clip-rule="nonzero">
<path style="fill:none;stroke-width:0.3985;stroke-linecap:butt;stroke-linejoin:miter;stroke:rgb(0%,0%,0%);stroke-opacity:1;stroke-miterlimit:10;" d="M 3.756875 -28.347406 C 3.756875 -26.273187 2.073281 -24.589594 -0.0009375 -24.589594 C -2.075156 -24.589594 -3.75875 -26.273187 -3.75875 -28.347406 C -3.75875 -30.421625 -2.075156 -32.105219 -0.0009375 -32.105219 C 2.073281 -32.105219 3.756875 -30.421625 3.756875 -28.347406 Z M 3.756875 -28.347406 " transform="matrix(1,0,0,-1,9.665,6.344)"/>
</g>
<path style=" stroke:none;fill-rule:nonzero;fill:rgb(100%,100%,100%);fill-opacity:1;" d="M 15.300781 63.039062 C 15.300781 59.925781 12.777344 57.402344 9.664062 57.402344 C 6.550781 57.402344 4.03125 59.925781 4.03125 63.039062 C 4.03125 66.148438 6.550781 68.671875 9.664062 68.671875 C 12.777344 68.671875 15.300781 66.148438 15.300781 63.039062 Z M 15.300781 63.039062 "/>
<g clip-path="url(#clip3)" clip-rule="nonzero">
<path style="fill:none;stroke-width:1.41731;stroke-linecap:butt;stroke-linejoin:miter;stroke:rgb(0%,0%,0%);stroke-opacity:1;stroke-miterlimit:10;" d="M 5.635781 -56.695062 C 5.635781 -53.581781 3.112344 -51.058344 -0.0009375 -51.058344 C -3.114219 -51.058344 -5.63375 -53.581781 -5.63375 -56.695062 C -5.63375 -59.804437 -3.114219 -62.327875 -0.0009375 -62.327875 C 3.112344 -62.327875 5.635781 -59.804437 5.635781 -56.695062 Z M 5.635781 -56.695062 " transform="matrix(1,0,0,-1,9.665,6.344)"/>
</g>
<path style="fill:none;stroke-width:1.41731;stroke-linecap:butt;stroke-linejoin:miter;stroke:rgb(0%,0%,0%);stroke-opacity:1;stroke-miterlimit:10;" d="M -0.0009375 -32.261469 L -0.0009375 -46.68725 " transform="matrix(1,0,0,-1,9.665,6.344)"/>
<path style=" stroke:none;fill-rule:nonzero;fill:rgb(0%,0%,0%);fill-opacity:1;" d="M 9.664062 56.550781 L 12.480469 50.917969 L 9.664062 53.03125 L 6.847656 50.917969 "/>
<path style="fill:none;stroke-width:1.41731;stroke-linecap:butt;stroke-linejoin:miter;stroke:rgb(0%,0%,0%);stroke-opacity:1;stroke-miterlimit:10;" d="M -0.0009375 -6.484125 L -0.0009375 -20.909906 " transform="matrix(1,0,0,-1,9.665,6.344)"/>
<path style=" stroke:none;fill-rule:nonzero;fill:rgb(0%,0%,0%);fill-opacity:1;" d="M 9.664062 30.773438 L 12.480469 25.140625 L 9.664062 27.253906 L 6.847656 25.140625 "/>
</g>
</svg>
