<?xml version="1.0" encoding="UTF-8"?>
<svg xmlns="http://www.w3.org/2000/svg" xmlns:xlink="http://www.w3.org/1999/xlink" width="241.629pt" height="238.308pt" viewBox="0 0 241.629 238.308" version="1.1">
<defs>
<clipPath id="clip1">
  <path d="M 3 0 L 241.628906 0 L 241.628906 238.308594 L 3 238.308594 Z M 3 0 "/>
</clipPath>
</defs>
<g id="surface1">
<g clip-path="url(#clip1)" clip-rule="nonzero">
<path style="fill:none;stroke-width:0.19925;stroke-linecap:round;stroke-linejoin:miter;stroke:rgb(50%,50%,50%);stroke-opacity:1;stroke-miterlimit:10;" d="M -119.057031 -85.041312 L 119.05625 -85.041312 M -119.057031 -42.521781 L 119.05625 -42.521781 M -119.057031 0.00165625 L 119.05625 0.00165625 M -119.057031 42.521188 L 119.05625 42.521188 M -119.057031 85.040719 L 119.05625 85.040719 M -85.041406 -119.056937 L -85.041406 119.056344 M -42.521875 -119.056937 L -42.521875 119.056344 M 0.0015625 -119.056937 L 0.0015625 119.056344 M 42.521094 -119.056937 L 42.521094 119.056344 M 85.040625 -119.056937 L 85.040625 119.056344 " transform="matrix(1,0,0,-1,122.475,119.154)"/>
</g>
<path style="fill:none;stroke-width:0.3985;stroke-linecap:round;stroke-linejoin:miter;stroke:rgb(0%,0%,0%);stroke-opacity:1;stroke-miterlimit:10;" d="M -42.521875 -42.521781 C -13.799219 -59.099906 13.798438 -59.099906 42.521094 -42.521781 " transform="matrix(1,0,0,-1,122.475,119.154)"/>
</g>
</svg>
